<svg width="20" height="12" viewBox="0 0 20 12" fill="none" xmlns="http://www.w3.org/2000/svg">
<path d="M5.625 0.34375C8.75 0.34375 11.2812 2.875 11.2812 6C11.2812 9.15625 8.75 11.6875 5.625 11.6875C2.5 11.6875 0 9.15625 0 6C0 2.875 2.5 0.34375 5.625 0.34375ZM14.625 0.65625C16.1875 0.65625 17.4688 3.0625 17.4688 6.03125C17.4688 8.96875 16.1875 11.375 14.625 11.375C13.0625 11.375 11.8125 8.96875 11.8125 6.03125C11.8125 3.0625 13.0625 0.65625 14.625 0.65625ZM19 1.21875C19.5312 1.21875 20 3.375 20 6C20 8.65625 19.5312 10.8125 19 10.8125C18.4375 10.8125 18 8.65625 18 6.03125C18 3.375 18.4375 1.21875 19 1.21875Z" fill="#1A1A1A"/>
</svg>
