<svg width="16" height="16" viewBox="0 0 16 16" fill="none" xmlns="http://www.w3.org/2000/svg">
<path d="M1.90625 5.3125C1.53125 6.125 1.34375 7.0625 1.34375 8C1.34375 10.6562 2.875 12.9062 5.09375 14L1.90625 5.3125ZM12.4688 7.6875C12.4688 8.25 12.25 8.90625 11.9688 9.8125L11.3125 12.0312L8.90625 4.90625C9.3125 4.875 9.65625 4.84375 9.65625 4.84375C10.0312 4.78125 9.96875 4.25 9.625 4.28125C9.625 4.28125 8.53125 4.375 7.84375 4.375C7.1875 4.375 6.09375 4.28125 6.09375 4.28125C5.75 4.25 5.6875 4.8125 6.0625 4.84375C6.0625 4.84375 6.40625 4.875 6.75 4.90625L7.78125 7.71875L6.34375 12.0938L3.90625 4.90625C4.3125 4.875 4.6875 4.84375 4.6875 4.84375C5.03125 4.78125 5 4.25 4.625 4.28125C4.625 4.28125 3.5625 4.375 2.84375 4.375C2.71875 4.375 2.59375 4.375 2.4375 4.375C3.625 2.5625 5.65625 1.375 8 1.375C9.71875 1.375 11.2812 2.03125 12.4688 3.125C12.4375 3.09375 12.4062 3.09375 12.375 3.09375C11.75 3.09375 11.2812 3.6875 11.2812 4.28125C11.2812 4.84375 11.5938 5.3125 11.9375 5.84375C12.1875 6.28125 12.4688 6.84375 12.4688 7.6875ZM8.09375 8.59375L10.1562 14.1875C10.1562 14.2188 10.1875 14.25 10.1875 14.2812C9.5 14.5312 8.75 14.6562 8 14.6562C7.34375 14.6562 6.71875 14.5625 6.09375 14.4062L8.09375 8.59375ZM13.8125 4.8125C14.3438 5.78125 14.625 6.84375 14.625 8C14.625 10.4688 13.3125 12.5938 11.3125 13.75L13.3438 7.875C13.75 6.9375 13.875 6.1875 13.875 5.5C13.875 5.25 13.8438 5.03125 13.8125 4.8125ZM15.75 8C15.75 3.75 12.25 0.25 8 0.25C3.71875 0.25 0.25 3.75 0.25 8C0.25 12.2812 3.71875 15.75 8 15.75C12.25 15.75 15.75 12.2812 15.75 8ZM15.375 8C15.375 12.0938 12.0625 15.4062 8 15.4062C3.90625 15.4062 0.59375 12.0938 0.59375 8C0.59375 3.9375 3.90625 0.625 8 0.625C12.0625 0.625 15.375 3.9375 15.375 8Z" fill="#1A1A1A"/>
</svg>
